<svg width="74" height="74" viewBox="0 0 74 74" fill="none" xmlns="http://www.w3.org/2000/svg">
<path d="M56.0132 35.7771C54.9258 30.3894 50.1557 26.3199 44.4518 26.3199H42.0863C42.8806 24.5037 43.3227 22.4995 43.3227 20.3936V14.8382C43.3227 6.65634 36.6663 0 28.4845 0C20.3027 0 13.6463 6.65634 13.6463 14.8382V20.3936C13.6463 22.4995 14.0878 24.5037 14.8822 26.3199H12.5172C6.01329 26.3199 0.722656 31.6106 0.722656 38.1139V57.008H35.0421C36.1221 66.5555 44.2469 74 54.0784 74C64.6433 74 73.2384 65.4049 73.2384 54.84C73.239 44.9278 65.6731 36.7499 56.0132 35.7771ZM17.9823 14.8382C17.9823 9.04732 22.6937 4.33594 28.4845 4.33594C34.2754 4.33594 38.9867 9.04732 38.9867 14.8382V20.3936C38.9867 26.1844 34.2754 30.8958 28.4845 30.8958C22.6937 30.8958 17.9823 26.1844 17.9823 20.3936V14.8382ZM5.05859 38.1139C5.05859 34.0015 8.40427 30.6559 12.5166 30.6559H17.7768C20.4794 33.4742 24.2807 35.2318 28.4845 35.2318C32.6883 35.2318 36.4896 33.4742 39.1917 30.6559H44.4518C47.7738 30.6559 50.5944 32.8391 51.557 35.846C42.8874 36.991 36.0278 43.9539 35.0415 52.672H5.05859V38.1139ZM54.0784 69.6641C45.9045 69.6641 39.2543 63.0139 39.2543 54.84C39.2543 46.6661 45.9045 40.016 54.0784 40.016C62.2529 40.016 68.9025 46.6661 68.9025 54.84C68.9025 63.0139 62.2529 69.6641 54.0784 69.6641Z" fill="#06BC44"/>
<path d="M56.2464 47.3295H51.9104V52.672H46.5684V57.008H51.9104V62.35H56.2464V57.008H61.5889V52.672H56.2464V47.3295Z" fill="#06BC44"/>
</svg>
