<svg width="74" height="74" viewBox="0 0 74 74" fill="none" xmlns="http://www.w3.org/2000/svg">
<path d="M52.1758 4.27495V0H21.8242V4.27495H8.09375V74H65.9062V4.27495H52.1758ZM26.1602 4.33594H47.8398V8.61088H26.1602V4.33594ZM61.5703 69.6641H12.4297V8.61088H21.8242V12.9468H52.1758V8.61088H61.5703V69.6641Z" fill="#06BC44"/>
<path d="M29.7734 18.0054H16.7656V31.0132H29.7734V18.0054ZM25.4375 26.6772H21.1016V22.3413H25.4375V26.6772Z" fill="#06BC44"/>
<path d="M36.9819 22.3413H57.2344V26.6772H36.9819V22.3413Z" fill="#06BC44"/>
<path d="M29.7734 35.9272H16.7656V48.9351H29.7734V35.9272ZM25.4375 44.5991H21.1016V40.2632H25.4375V44.5991Z" fill="#06BC44"/>
<path d="M36.9819 40.2632H57.2344V44.5991H36.9819V40.2632Z" fill="#06BC44"/>
<path d="M36.9819 57.896H57.2344V62.2319H36.9819V57.896Z" fill="#06BC44"/>
<path d="M21.5352 60.0332L18.7321 57.2303L15.6663 60.2963L21.5352 66.1651L31.0173 56.683L27.9515 53.6171L21.5352 60.0332Z" fill="#06BC44"/>
</svg>
