<svg width="74" height="74" viewBox="0 0 74 74" fill="none" xmlns="http://www.w3.org/2000/svg">
<g clip-path="url(#clip0)">
<path d="M36.9998 74L28.1154 64.0477L16.1119 65.7455L13.9999 53.7061L3.20221 47.9772L8.57036 36.9957L3.20235 26.0143L13.9999 20.2854L16.1119 8.24597L28.116 9.94382L36.9998 0L45.8836 9.94382L57.8878 8.24597L59.9997 20.2854L70.7973 26.0143L65.4293 36.9957L70.7975 47.9772L59.9997 53.7061L57.8878 65.7455L45.8842 64.0477L36.9998 74ZM29.8053 59.4293L36.9998 67.4887L44.1943 59.4293L54.3416 60.8646L56.095 50.869L65.0594 46.1127L60.6027 36.9954L65.0594 27.8782L56.095 23.1219L54.3418 13.1266L44.195 14.5618L37 6.50824L29.8049 14.5618L19.6582 13.1266L17.9048 23.1222L8.94037 27.8785L13.3971 36.9957L8.94037 46.113L17.9048 50.8693L19.6582 60.8649L29.8053 59.4293Z" fill="#06BC44"/>
<path d="M25.2557 45.6666L45.6628 25.2595L48.7284 28.3251L28.3213 48.7322L25.2557 45.6666Z" fill="#06BC44"/>
<path d="M45.672 52.1717C42.0856 52.1717 39.1679 49.2539 39.1679 45.6676C39.1679 42.0813 42.0856 39.1636 45.672 39.1636C49.2583 39.1636 52.176 42.0813 52.176 45.6676C52.176 49.2539 49.2583 52.1717 45.672 52.1717ZM45.672 43.4996C44.4765 43.4996 43.5039 44.4722 43.5039 45.6676C43.5039 46.8631 44.4765 47.8356 45.672 47.8356C46.8674 47.8356 47.84 46.8631 47.84 45.6676C47.84 44.4722 46.8674 43.4996 45.672 43.4996Z" fill="#06BC44"/>
<path d="M28.3278 34.8275C24.7415 34.8275 21.8238 31.9098 21.8238 28.3235C21.8238 24.7372 24.7415 21.8195 28.3278 21.8195C31.9142 21.8195 34.8319 24.7372 34.8319 28.3235C34.8319 31.9098 31.9142 34.8275 28.3278 34.8275ZM28.3278 26.1555C27.1324 26.1555 26.1598 27.1281 26.1598 28.3235C26.1598 29.5189 27.1324 30.4915 28.3278 30.4915C29.5233 30.4915 30.4959 29.5189 30.4959 28.3235C30.4959 27.1281 29.5233 26.1555 28.3278 26.1555Z" fill="#06BC44"/>
</g>
<defs>
<clipPath id="clip0">
<rect width="74" height="74" fill="white"/>
</clipPath>
</defs>
</svg>
