<svg width="216" height="29" viewBox="0 0 216 29" fill="none" xmlns="http://www.w3.org/2000/svg">
<path d="M14.6212 28.8C11.8585 28.8 9.35652 28.2128 7.11513 27.0383C4.89979 25.8383 3.15359 24.1915 1.87652 22.0979C0.625506 20.0043 0 17.6426 0 15.0128C0 12.383 0.638537 10.0213 1.91561 7.92766C3.19268 5.83404 4.93889 4.2 7.15422 3.02553C9.39562 1.82553 11.8976 1.22553 14.6603 1.22553C16.9017 1.22553 18.9476 1.60851 20.7981 2.37447C22.6485 3.14043 24.2123 4.25106 25.4894 5.70638L22.2055 8.73192C20.2247 6.6383 17.7878 5.59149 14.8949 5.59149C13.0183 5.59149 11.3373 6 9.85171 6.81702C8.36614 7.60851 7.20635 8.71915 6.37234 10.1489C5.53833 11.5787 5.12133 13.2 5.12133 15.0128C5.12133 16.8255 5.53833 18.4468 6.37234 19.8766C7.20635 21.3064 8.36614 22.4298 9.85171 23.2468C11.3373 24.0383 13.0183 24.434 14.8949 24.434C17.7878 24.434 20.2247 23.3745 22.2055 21.2553L25.4894 24.3191C24.2123 25.7745 22.6355 26.8851 20.759 27.6511C18.9085 28.417 16.8626 28.8 14.6212 28.8Z" fill="#222222"/>
<path d="M29.108 0H33.9948V28.417H29.108V0Z" fill="#222222"/>
<path d="M49.0093 28.6851C46.8983 28.6851 44.9957 28.2383 43.3016 27.3447C41.6075 26.4511 40.2783 25.2128 39.314 23.6298C38.3757 22.0213 37.9066 20.2085 37.9066 18.1915C37.9066 16.1745 38.3757 14.3745 39.314 12.7915C40.2783 11.2085 41.6075 9.97021 43.3016 9.0766C44.9957 8.18298 46.8983 7.73617 49.0093 7.73617C51.1465 7.73617 53.0621 8.18298 54.7562 9.0766C56.4503 9.97021 57.7664 11.2085 58.7047 12.7915C59.669 14.3745 60.1512 16.1745 60.1512 18.1915C60.1512 20.2085 59.669 22.0213 58.7047 23.6298C57.7664 25.2128 56.4503 26.4511 54.7562 27.3447C53.0621 28.2383 51.1465 28.6851 49.0093 28.6851ZM49.0093 24.5872C50.8077 24.5872 52.2933 24 53.4661 22.8255C54.6389 21.6511 55.2253 20.1064 55.2253 18.1915C55.2253 16.2766 54.6389 14.7319 53.4661 13.5574C52.2933 12.383 50.8077 11.7957 49.0093 11.7957C47.211 11.7957 45.7254 12.383 44.5526 13.5574C43.4059 14.7319 42.8325 16.2766 42.8325 18.1915C42.8325 20.1064 43.4059 21.6511 44.5526 22.8255C45.7254 24 47.211 24.5872 49.0093 24.5872Z" fill="#222222"/>
<path d="M84.2539 7.96596V28.417H79.6017V25.8128C78.8198 26.7319 77.8425 27.4468 76.6696 27.9574C75.4968 28.4426 74.2328 28.6851 72.8775 28.6851C70.0888 28.6851 67.8865 27.9319 66.2706 26.4255C64.6808 24.8936 63.8859 22.634 63.8859 19.6468V7.96596H68.7726V18.9957C68.7726 20.834 69.1896 22.2128 70.0237 23.1319C70.8837 24.0255 72.0956 24.4723 73.6594 24.4723C75.4056 24.4723 76.7869 23.9489 77.8034 22.9021C78.8459 21.8298 79.3671 20.2979 79.3671 18.3064V7.96596H84.2539Z" fill="#222222"/>
<path d="M102.42 27.3064C101.846 27.766 101.142 28.1106 100.308 28.3404C99.5005 28.5702 98.6404 28.6851 97.7282 28.6851C95.4347 28.6851 93.6624 28.0979 92.4114 26.9234C91.1604 25.7489 90.5349 24.0383 90.5349 21.7915V11.9489H87.0946V8.11915H90.5349V3.44681H95.4217V8.11915H101.012V11.9489H95.4217V21.6766C95.4217 22.6723 95.6693 23.4383 96.1645 23.9745C96.6597 24.4851 97.3764 24.7404 98.3146 24.7404C99.4093 24.7404 100.321 24.4596 101.051 23.8979L102.42 27.3064Z" fill="#222222"/>
<path d="M125.417 0V28.417H120.725V25.7745C119.917 26.7447 118.914 27.4723 117.715 27.9574C116.542 28.4426 115.239 28.6851 113.806 28.6851C111.799 28.6851 109.987 28.2511 108.372 27.383C106.782 26.5149 105.531 25.2894 104.619 23.7064C103.706 22.0979 103.25 20.2596 103.25 18.1915C103.25 16.1234 103.706 14.2979 104.619 12.7149C105.531 11.1319 106.782 9.90638 108.372 9.0383C109.987 8.17021 111.799 7.73617 113.806 7.73617C115.187 7.73617 116.451 7.96596 117.598 8.42553C118.745 8.88511 119.722 9.57447 120.53 10.4936V0H125.417ZM114.392 24.5872C115.565 24.5872 116.62 24.3319 117.559 23.8213C118.497 23.2851 119.24 22.5319 119.787 21.5617C120.334 20.5915 120.608 19.4681 120.608 18.1915C120.608 16.9149 120.334 15.7915 119.787 14.8213C119.24 13.8511 118.497 13.1106 117.559 12.6C116.62 12.0638 115.565 11.7957 114.392 11.7957C113.219 11.7957 112.164 12.0638 111.225 12.6C110.287 13.1106 109.544 13.8511 108.997 14.8213C108.45 15.7915 108.176 16.9149 108.176 18.1915C108.176 19.4681 108.45 20.5915 108.997 21.5617C109.544 22.5319 110.287 23.2851 111.225 23.8213C112.164 24.3319 113.219 24.5872 114.392 24.5872Z" fill="#222222"/>
<path d="M150.653 18.3064C150.653 18.6383 150.627 19.1106 150.575 19.7234H134.194C134.481 21.2298 135.224 22.4298 136.423 23.3234C137.647 24.1915 139.159 24.6255 140.957 24.6255C143.251 24.6255 145.141 23.8851 146.626 22.4043L149.245 25.3532C148.307 26.4511 147.121 27.2808 145.688 27.8426C144.254 28.4043 142.638 28.6851 140.84 28.6851C138.547 28.6851 136.527 28.2383 134.781 27.3447C133.034 26.4511 131.679 25.2128 130.715 23.6298C129.777 22.0213 129.307 20.2085 129.307 18.1915C129.307 16.2 129.764 14.4128 130.676 12.8298C131.614 11.2213 132.904 9.97021 134.546 9.0766C136.188 8.18298 138.038 7.73617 140.097 7.73617C142.13 7.73617 143.942 8.18298 145.531 9.0766C147.147 9.94468 148.398 11.183 149.285 12.7915C150.197 14.3745 150.653 16.2128 150.653 18.3064ZM140.097 11.566C138.534 11.566 137.204 12.0255 136.11 12.9447C135.041 13.8383 134.39 15.0383 134.155 16.5447H146.001C145.792 15.0638 145.154 13.8638 144.085 12.9447C143.016 12.0255 141.687 11.566 140.097 11.566Z" fill="#222222"/>
<path d="M161.015 28.6851C159.321 28.6851 157.666 28.4681 156.051 28.034C154.435 27.6 153.145 27.0511 152.18 26.3872L154.057 22.7489C154.995 23.3617 156.116 23.8596 157.419 24.2426C158.748 24.6 160.051 24.7787 161.328 24.7787C164.247 24.7787 165.707 24.0255 165.707 22.5191C165.707 21.8043 165.329 21.3064 164.573 21.0255C163.843 20.7447 162.657 20.4766 161.015 20.2213C159.295 19.966 157.888 19.6723 156.793 19.3404C155.725 19.0085 154.786 18.434 153.979 17.617C153.197 16.7745 152.806 15.6128 152.806 14.1319C152.806 12.1915 153.627 10.6468 155.269 9.49787C156.937 8.3234 159.178 7.73617 161.993 7.73617C163.426 7.73617 164.86 7.90213 166.293 8.23404C167.727 8.54043 168.899 8.9617 169.812 9.49787L167.935 13.1362C166.163 12.1149 164.169 11.6043 161.954 11.6043C160.52 11.6043 159.426 11.8213 158.67 12.2553C157.94 12.6638 157.575 13.2128 157.575 13.9021C157.575 14.6681 157.966 15.217 158.748 15.5489C159.556 15.8553 160.794 16.1489 162.462 16.4298C164.13 16.6851 165.498 16.9787 166.567 17.3106C167.635 17.6426 168.548 18.2043 169.303 18.9957C170.085 19.7872 170.476 20.9106 170.476 22.366C170.476 24.2808 169.629 25.8128 167.935 26.9617C166.241 28.1106 163.935 28.6851 161.015 28.6851Z" fill="#222222"/>
<path d="M182.425 19.6468L178.79 23.017V28.417H173.903V0H178.79V17.1574L188.915 7.96596H194.779L186.061 16.5447L195.6 28.417H189.658L182.425 19.6468Z" fill="#222222"/>
<path d="M216 18.6C216 24.2333 211.433 28.8 205.8 28.8C200.167 28.8 195.6 24.2333 195.6 18.6C195.6 12.9667 200.167 8.39996 205.8 8.39996C211.433 8.39996 216 12.9667 216 18.6Z" fill="#06BC44"/>
<path d="M201.861 24L200.4 22.5402L207.732 15.2064H202.165L202.179 13.2H211.2V22.2219H209.178L209.192 16.6663L201.861 24Z" fill="white"/>
</svg>
