<svg width="216" height="31" viewBox="0 0 216 31" fill="none" xmlns="http://www.w3.org/2000/svg">
<path d="M13.3759 2.10899C16.8057 2.10899 19.655 2.99054 21.9239 4.75366C24.1928 6.51677 25.723 8.90766 26.5144 11.9263H21.726C21.0664 10.2166 20.0111 8.86759 18.5601 7.87918C17.1354 6.86405 15.381 6.35649 13.2968 6.35649C11.6347 6.35649 10.1441 6.77055 8.82495 7.59868C7.53221 8.42681 6.50329 9.61557 5.7382 11.165C4.99949 12.6877 4.63013 14.4775 4.63013 16.5345C4.63013 18.5647 4.99949 20.3545 5.7382 21.9039C6.50329 23.4266 7.53221 24.602 8.82495 25.4302C10.1441 26.2583 11.6347 26.6724 13.2968 26.6724C15.381 26.6724 17.1354 26.1781 18.5601 25.1897C20.0111 24.1746 21.0664 22.8256 21.726 21.1426H26.5144C25.723 24.1613 24.1928 26.5521 21.9239 28.3153C19.655 30.0517 16.8057 30.9199 13.3759 30.9199C10.7377 30.9199 8.40283 30.3188 6.37138 29.1167C4.33993 27.8878 2.77017 26.1915 1.6621 24.0277C0.554033 21.8372 0 19.3394 0 16.5345C0 13.7295 0.554033 11.2451 1.6621 9.0813C2.77017 6.89076 4.33993 5.18108 6.37138 3.95224C8.40283 2.7234 10.7377 2.10899 13.3759 2.10899Z" fill="#222222"/>
<path d="M34.7356 1.02708V30.6794H30.2242V1.02708H34.7356Z" fill="#222222"/>
<path d="M49.376 8.31995C51.4866 8.31995 53.3862 8.77409 55.0746 9.68236C56.7631 10.5906 58.0823 11.8996 59.032 13.6093C59.9818 15.319 60.4567 17.3225 60.4567 19.6199C60.4567 21.944 59.9818 23.9609 59.032 25.6706C58.0823 27.3803 56.7631 28.6893 55.0746 29.5975C53.3862 30.5058 51.4866 30.9599 49.376 30.9599C47.2654 30.9599 45.3659 30.5058 43.6774 29.5975C42.0153 28.6893 40.6962 27.3803 39.72 25.6706C38.7703 23.9342 38.2954 21.9173 38.2954 19.6199C38.2954 17.3225 38.7703 15.319 39.72 13.6093C40.6962 11.8996 42.0153 10.5906 43.6774 9.68236C45.3659 8.77409 47.2654 8.31995 49.376 8.31995ZM49.376 12.287C48.2152 12.287 47.1467 12.5541 46.1706 13.0884C45.1944 13.6226 44.4029 14.4508 43.7961 15.5728C43.2157 16.668 42.9255 18.0171 42.9255 19.6199C42.9255 21.2494 43.2157 22.6119 43.7961 23.7071C44.4029 24.8024 45.1944 25.6172 46.1706 26.1514C47.1467 26.6857 48.2152 26.9529 49.376 26.9529C50.5369 26.9529 51.6053 26.6857 52.5815 26.1514C53.5577 25.6172 54.3359 24.8024 54.9164 23.7071C55.5232 22.6119 55.8266 21.2494 55.8266 19.6199C55.8266 18.0171 55.5232 16.668 54.9164 15.5728C54.3359 14.4508 53.5577 13.6226 52.5815 13.0884C51.6053 12.5541 50.5369 12.287 49.376 12.287Z" fill="#222222"/>
<path d="M84.106 8.60045V30.6794H79.5551V25.8709C79.001 27.5005 78.0381 28.7694 76.6662 29.6777C75.2943 30.5592 73.6981 31 71.8777 31C69.345 31 67.3136 30.1719 65.7834 28.5156C64.2532 26.8594 63.4881 24.4952 63.4881 21.4231V8.60045H67.9995V20.9422C67.9995 22.9458 68.5008 24.4952 69.5033 25.5904C70.5059 26.659 71.8777 27.1933 73.619 27.1933C75.413 27.1933 76.8508 26.6056 77.9325 25.4302C79.0142 24.2548 79.5551 22.5451 79.5551 20.3011V8.60045H84.106Z" fill="#222222"/>
<path d="M99.6796 26.7124V30.6794H96.9094C94.5877 30.6794 92.8201 30.1184 91.6065 28.9965C90.4193 27.8478 89.8257 25.9511 89.8257 23.3064V12.4873H86.6994V8.60045H89.8257V3.11076H94.3767V8.60045H99.64V12.4873H94.3767V23.3866C94.3767 24.6421 94.6009 25.5103 95.0494 25.9912C95.5243 26.472 96.3422 26.7124 97.503 26.7124H99.6796Z" fill="#222222"/>
<path d="M113.285 4.03238C111.517 3.95224 110.277 4.24609 109.565 4.91394C108.852 5.55507 108.496 6.6637 108.496 8.23981V8.60045H113.285V12.5274H108.496V30.6794H103.945V12.5274H100.977V8.60045H103.945V7.87918C103.945 5.18108 104.723 3.16418 106.28 1.82849C107.837 0.466086 110.171 -0.134975 113.285 0.0253077V4.03238Z" fill="#222222"/>
<path d="M120.631 1.02708V30.6794H116.119V1.02708H120.631Z" fill="#222222"/>
<path d="M135.271 8.31995C137.382 8.31995 139.281 8.77409 140.97 9.68236C142.658 10.5906 143.977 11.8996 144.927 13.6093C145.877 15.319 146.352 17.3225 146.352 19.6199C146.352 21.944 145.877 23.9609 144.927 25.6706C143.977 27.3803 142.658 28.6893 140.97 29.5975C139.281 30.5058 137.382 30.9599 135.271 30.9599C133.161 30.9599 131.261 30.5058 129.573 29.5975C127.911 28.6893 126.591 27.3803 125.615 25.6706C124.665 23.9342 124.191 21.9173 124.191 19.6199C124.191 17.3225 124.665 15.319 125.615 13.6093C126.591 11.8996 127.911 10.5906 129.573 9.68236C131.261 8.77409 133.161 8.31995 135.271 8.31995ZM135.271 12.287C134.11 12.287 133.042 12.5541 132.066 13.0884C131.09 13.6226 130.298 14.4508 129.691 15.5728C129.111 16.668 128.821 18.0171 128.821 19.6199C128.821 21.2494 129.111 22.6119 129.691 23.7071C130.298 24.8024 131.09 25.6172 132.066 26.1514C133.042 26.6857 134.11 26.9529 135.271 26.9529C136.432 26.9529 137.501 26.6857 138.477 26.1514C139.453 25.6172 140.231 24.8024 140.812 23.7071C141.418 22.6119 141.722 21.2494 141.722 19.6199C141.722 18.0171 141.418 16.668 140.812 15.5728C140.231 14.4508 139.453 13.6226 138.477 13.0884C137.501 12.5541 136.432 12.287 135.271 12.287Z" fill="#222222"/>
<path d="M159.87 8.31995C161.981 8.31995 163.881 8.77409 165.569 9.68236C167.257 10.5906 168.577 11.8996 169.526 13.6093C170.476 15.319 170.951 17.3225 170.951 19.6199C170.951 21.944 170.476 23.9609 169.526 25.6706C168.577 27.3803 167.257 28.6893 165.569 29.5975C163.881 30.5058 161.981 30.9599 159.87 30.9599C157.76 30.9599 155.86 30.5058 154.172 29.5975C152.51 28.6893 151.191 27.3803 150.214 25.6706C149.265 23.9342 148.79 21.9173 148.79 19.6199C148.79 17.3225 149.265 15.319 150.214 13.6093C151.191 11.8996 152.51 10.5906 154.172 9.68236C155.86 8.77409 157.76 8.31995 159.87 8.31995ZM159.87 12.287C158.71 12.287 157.641 12.5541 156.665 13.0884C155.689 13.6226 154.897 14.4508 154.29 15.5728C153.71 16.668 153.42 18.0171 153.42 19.6199C153.42 21.2494 153.71 22.6119 154.29 23.7071C154.897 24.8024 155.689 25.6172 156.665 26.1514C157.641 26.6857 158.71 26.9529 159.87 26.9529C161.031 26.9529 162.1 26.6857 163.076 26.1514C164.052 25.6172 164.83 24.8024 165.411 23.7071C166.017 22.6119 166.321 21.2494 166.321 19.6199C166.321 18.0171 166.017 16.668 165.411 15.5728C164.83 14.4508 164.052 13.6226 163.076 13.0884C162.1 12.5541 161.031 12.287 159.87 12.287Z" fill="#222222"/>
<path d="M179.008 12.9281C179.747 11.4855 180.802 10.3502 182.174 9.52208C183.546 8.66723 185.129 8.23981 186.923 8.23981V13.2086H185.578C183.599 13.2086 182.003 13.7028 180.789 14.6912C179.602 15.6529 179.008 17.2557 179.008 19.4997V30.6794H174.497V8.60045H179.008V12.9281Z" fill="#222222"/>
<path d="M216 19.6333C216 25.911 210.886 31 204.577 31C198.268 31 193.154 25.911 193.154 19.6333C193.154 13.3557 198.268 8.26666 204.577 8.26666C210.886 8.26666 216 13.3557 216 19.6333Z" fill="#06BC44"/>
<path d="M200.032 24.8L198.346 23.2636L206.806 15.545H200.383L200.399 13.4333H210.808V22.9286H208.475L208.491 17.0814L200.032 24.8Z" fill="white"/>
</svg>
