<svg width="74" height="74" viewBox="0 0 74 74" fill="none" xmlns="http://www.w3.org/2000/svg">
<g clip-path="url(#clip0)">
<path d="M19.5883 0V34.8234H2.17661V63.1174C2.17661 69.5121 7.70787 74.5873 14.1471 73.9452V73.9997H60.9411C66.9416 73.9997 71.8234 69.1179 71.8234 63.1174V0H19.5883ZM6.52953 63.1174V39.1763H19.5883V63.1174C19.2288 71.7816 6.88589 71.7749 6.52953 63.1174ZM67.4705 63.1174C67.4705 66.7178 64.5415 69.6468 60.9411 69.6468H21.7588C23.1284 67.8267 23.9412 65.5653 23.9412 63.1174C23.9412 60.7886 23.9412 6.71801 23.9412 4.35292H67.4705V63.1174Z" fill="#06BC44"/>
<path d="M63.1175 8.70581H28.2942V30.4704H63.1175V8.70581ZM58.7646 26.1175H32.6471V13.0587H58.7646V26.1175Z" fill="#06BC44"/>
<path d="M50.0588 52.2351H63.1175V34.8234H50.0588V52.2351ZM54.4117 39.1763H58.7646V47.8821H54.4117V39.1763Z" fill="#06BC44"/>
<path d="M28.2942 34.8234H45.7059V39.1763H28.2942V34.8234Z" fill="#06BC44"/>
<path d="M28.2942 43.5293H45.7059V47.8822H28.2942V43.5293Z" fill="#06BC44"/>
<path d="M28.2942 52.235H45.7059V56.5879H28.2942V52.235Z" fill="#06BC44"/>
</g>
<defs>
<clipPath id="clip0">
<rect width="74" height="74" fill="white"/>
</clipPath>
</defs>
</svg>
