<svg width="74" height="74" viewBox="0 0 74 74" fill="none" xmlns="http://www.w3.org/2000/svg">
<path d="M36.9999 73.9999C27.1169 73.9999 17.8254 70.1513 10.837 63.1628C3.84861 56.1744 0 46.883 0 36.9999C0 27.1169 3.84875 17.8254 10.8372 10.8372C17.8256 3.8489 27.1169 0 36.9999 0C46.883 0 56.1744 3.84861 63.1628 10.837C70.1513 17.8254 74 27.1169 74 36.9999C74 46.883 70.1513 56.1744 63.1628 63.1628C56.1744 70.1513 46.883 73.9999 36.9999 73.9999ZM36.9999 4.33613C28.2752 4.33613 20.0725 7.73378 13.9031 13.9031C7.73364 20.0724 4.33613 28.2752 4.33613 36.9999C4.33613 45.7247 7.73378 53.9273 13.9031 60.0966C20.0724 66.2659 28.2752 69.6636 36.9999 69.6636C45.7247 69.6636 53.9273 66.2659 60.0968 60.0966C66.2662 53.9273 69.6637 45.7247 69.6637 36.9999C69.6637 28.2752 66.2661 20.0725 60.0968 13.9032C53.9275 7.73393 45.7248 4.33613 36.9999 4.33613Z" fill="#06BC44"/>
<path d="M15.3426 55.6526L13.8537 53.5774C10.3713 48.7233 8.53064 42.9909 8.53064 37.0001C8.53064 31.0093 10.3713 25.2769 13.8537 20.4228L15.3426 18.3477L33.995 37.0003L15.3426 55.6526ZM15.9862 25.1232C13.9387 28.7312 12.8669 32.7899 12.8669 37C12.8669 41.2101 13.9387 45.2687 15.9862 48.8768L27.863 37L15.9862 25.1232Z" fill="#06BC44"/>
<path d="M36.9999 65.4694C31.0094 65.4694 25.2771 63.6287 20.4226 60.1462L18.3474 58.6575L37.0001 40.0049L55.6528 58.6575L53.5776 60.1462C48.723 63.6286 42.9906 65.4694 36.9999 65.4694ZM25.1231 58.0138C28.7314 60.0614 32.7901 61.1333 36.9999 61.1333C41.2098 61.1333 45.2685 60.0614 48.8768 58.0138L36.9999 46.137L25.1231 58.0138Z" fill="#06BC44"/>
<path d="M58.6573 55.6525L40.0049 36.9999L58.6573 18.3473L60.1461 20.4224C63.6287 25.2766 65.4694 31.0091 65.4694 36.9997C65.4694 42.9904 63.6287 48.7228 60.1462 53.5771L58.6573 55.6525ZM46.137 36.9999L58.0138 48.8767C60.0614 45.2685 61.1333 41.2098 61.1333 36.9999C61.1333 32.7899 60.0614 28.7312 58.0138 25.1231L46.137 36.9999Z" fill="#06BC44"/>
<path d="M36.9999 33.9951L18.3472 15.3425L20.4224 13.8538C25.2769 10.3714 31.0093 8.53076 36.9998 8.53076C42.9903 8.53076 48.7226 10.3714 53.5771 13.8538L55.6524 15.3425L36.9999 33.9951ZM25.1231 15.9862L36.9999 27.863L48.8767 15.9862C45.2685 13.9386 41.2097 12.8667 36.9999 12.8667C32.7901 12.8667 28.7313 13.9386 25.1231 15.9862Z" fill="#06BC44"/>
</svg>
