<svg width="74" height="74" viewBox="0 0 74 74" fill="none" xmlns="http://www.w3.org/2000/svg">
<path d="M48.7368 0H8.81641V74H65.1836V16.4412C64.4067 15.6646 49.2383 0.501379 48.7368 0ZM57.7803 15.1735L50.0078 15.1752V7.39928C52.0396 9.4311 54.2526 11.6453 57.7803 15.1735ZM16.2375 69.6641L27.2402 58.718L33.748 65.2258L50.0078 48.966V54.6328H54.3438V41.625H41.3359V45.9609H46.881L33.748 59.0939L27.248 52.5939L13.1523 66.6172V4.33594H45.6719V19.5123L60.8477 19.5088V69.6641H16.2375Z" fill="#06BC44"/>
<path d="M19.6562 15.1758H36.9519V19.5117H19.6562V15.1758Z" fill="#06BC44"/>
<path d="M19.6562 25.9775H36.9519V30.3135H19.6562V25.9775Z" fill="#06BC44"/>
</svg>
