<svg width="74" height="74" viewBox="0 0 74 74" fill="none" xmlns="http://www.w3.org/2000/svg">
<path d="M53.5056 7.97705V16.7801H42.5018V25.5831H31.498V41.151C28.9068 39.6488 25.8996 38.7877 22.695 38.7877C12.987 38.7877 5.0889 46.6858 5.0889 56.3938C5.0889 66.1018 12.987 73.9999 22.695 73.9999C33.2156 73.9999 41.4871 64.7573 40.1637 54.193H68.9108V7.97705H53.5056ZM15.946 67.739V67.251C15.946 63.6105 18.9078 60.6487 22.5483 60.6487C26.1888 60.6487 29.1505 63.6105 29.1505 67.251V67.909C25.1227 70.1761 20.0734 70.2037 15.946 67.739ZM20.3475 54.0465C20.3475 52.833 21.3346 51.8457 22.5483 51.8457C23.7618 51.8457 24.749 52.833 24.749 54.0465C24.749 55.26 23.7618 56.2472 22.5483 56.2472C21.3348 56.2472 20.3475 55.26 20.3475 54.0465ZM33.1788 64.4119C32.4162 61.5596 30.5335 59.1618 28.0329 57.7175C28.7383 56.6671 29.1505 55.4042 29.1505 54.0465C29.1505 50.406 26.1888 47.4442 22.5483 47.4442C18.9078 47.4442 15.946 50.406 15.946 54.0465C15.946 55.4042 16.3584 56.6671 17.0637 57.7175C14.6467 59.1135 12.8077 61.4001 11.9988 64.1273C10.4218 61.9522 9.49042 59.2799 9.49042 56.3939C9.49042 49.1129 15.414 43.1894 22.695 43.1894C29.976 43.1894 35.8995 49.1129 35.8995 56.3939C35.8995 59.4072 34.8843 62.1874 33.1788 64.4119ZM42.5018 49.7916H39.0186C38.3221 48.0742 37.265 46.2995 35.8995 44.7503V29.9847H42.5018V49.7916ZM53.5056 49.7916H46.9033C46.9033 48.3097 46.9033 22.539 46.9033 21.1818H53.5056V49.7916ZM64.5094 49.7916H57.9071C57.9071 48.5426 57.9071 14.2836 57.9071 12.3787H64.5094V49.7916Z" fill="#06BC44"/>
<path d="M21.9124 25.2964L28.3426 14.5793H36.9572L46.4211 2.74963L42.9841 0L34.8419 10.1778H25.8504L19.076 21.4684L11.1576 23.4481L12.2249 27.7181L21.9124 25.2964Z" fill="#06BC44"/>
</svg>
