<svg width="74" height="74" viewBox="0 0 74 74" fill="none" xmlns="http://www.w3.org/2000/svg">
<path d="M19.6562 44.9544L0 41.7054V70.6705L19.6562 73.9194L39.3125 70.6705V41.7054L19.6562 44.9544ZM17.4883 69.1664L4.33594 66.9925V46.8168L17.4883 48.9908V69.1664ZM34.9766 66.9923L21.8242 69.1662V48.9908L34.9766 46.8168V66.9923Z" fill="#06BC44"/>
<path d="M54.3438 3.32936L34.6875 0.0804443V29.0455L54.3438 32.2944L74 29.0455V0.0804443L54.3438 3.32936ZM52.1758 27.5414L39.0234 25.3675V5.19179L52.1758 7.36583V27.5414ZM69.6641 25.3675L56.5117 27.5414V7.36583L69.6641 5.19179V25.3675Z" fill="#06BC44"/>
<path d="M30.9924 13.91L24.4102 7.32458V11.7584C17.9806 11.9772 11.9705 14.5796 7.40434 19.1458C2.6296 23.9205 0 30.2736 0 37.0346H4.33594C4.33594 25.7746 13.2623 16.5619 24.4102 16.0974V20.4939L30.9924 13.91Z" fill="#06BC44"/>
<path d="M69.6641 37.0347C69.6641 48.2945 60.7377 57.5072 49.5898 57.9718V53.5753L43.0076 60.1591L49.5898 66.7445V62.3107C56.0194 62.0919 62.0295 59.4895 66.5957 54.9233C71.3705 50.1487 74 43.7957 74 37.0347H69.6641Z" fill="#06BC44"/>
</svg>
